<?xml version="1.0" encoding="UTF-8"?>
<svg viewBox="0 0 77 46" fill="none" xmlns="http://www.w3.org/2000/svg">
<path d="M3 46L33 38L3 30L0 38L3 46Z" fill="#00AEEF"/>
<path d="M3.598 27.356L33.579 35.427L11.598 13.499L5 18.927L3.598 27.356Z" fill="#8DC63F"/>
<path d="M13.5 11.598L35.428 33.579L27.356 3.598L18.928 5L13.5 11.598Z" fill="#FFF200"/>
<path d="M30 3L38 33L46 3L38 0L30 3Z" fill="#F7941D"/>
<path d="M49 3.598L40.928 33.579L62.856 11.598L57.428 5L49 3.598Z" fill="#ED1C24"/>
<path d="M64.981 13.5L43 35.428L72.981 27.356L71.579 18.928L64.981 13.5Z" fill="#E5007D"/>
<path d="M74 30L44 38L74 46L77 38L74 30Z" fill="#662D91"/>
</svg>