<svg xmlns="http://www.w3.org/2000/svg" viewBox="0 0 77 46" width="77" height="46">
  <path d="M3 46L33 38L3 30L0 38L3 46Z" fill="#00AEEF"/>
  <path d="M3.59808 27.3555L33.5788 35.4273L11.5981 13.4991L5 18.9273L3.59808 27.3555Z" fill="#8DC63F"/>
  <path d="M13.5 11.5981L35.4282 33.5788L27.3564 3.59808L18.9282 5L13.5 11.5981Z" fill="#FFF200"/>
  <path d="M30 3L38 33L46 3L38 0L30 3Z" fill="#F7941D"/>
  <path d="M49 3.59808L40.9282 33.5788L62.8564 11.5981L57.4282 5L49 3.59808Z" fill="#ED1C24"/>
  <path d="M64.981 13.5L43.0003 35.4282L72.981 27.3564L71.5791 18.9282L64.981 13.5Z" fill="#E5007D"/>
  <path d="M74 30L44 38L74 46L77 38L74 30Z" fill="#662D91"/>
</svg>
